<svg width="24" height="24" viewBox="0 0 24 24" fill="none" xmlns="http://www.w3.org/2000/svg">
<path d="M10.5 10C10.5 10.8284 9.82843 11.5 9 11.5C8.17157 11.5 7.5 10.8284 7.5 10C7.5 9.17157 8.17157 8.5 9 8.5C9.82843 8.5 10.5 9.17157 10.5 10Z" fill="black"/>
<path d="M15 11.5C15.8284 11.5 16.5 10.8284 16.5 10C16.5 9.17157 15.8284 8.5 15 8.5C14.1716 8.5 13.5 9.17157 13.5 10C13.5 10.8284 14.1716 11.5 15 11.5Z" fill="black"/>
<path d="M8.53513 14C9.01319 13.7235 9.61753 13.9048 10.0346 14.2668C10.5616 14.7242 11.2489 15 12 15C12.7511 15 13.4384 14.7242 13.9654 14.2668C14.3825 13.9048 14.9868 13.7235 15.4649 14C15.9429 14.2765 16.1127 14.897 15.7468 15.3107C14.8315 16.3457 13.4926 17 12 17C10.5074 17 9.16846 16.3457 8.2532 15.3107C7.88734 14.897 8.05707 14.2765 8.53513 14Z" fill="black"/>
<path fill-rule="evenodd" clip-rule="evenodd" d="M12 22C17.5228 22 22 17.5228 22 12C22 6.47715 17.5228 2 12 2C6.47715 2 2 6.47715 2 12C2 17.5228 6.47715 22 12 22ZM12 20C16.4183 20 20 16.4183 20 12C20 7.58172 16.4183 4 12 4C7.58172 4 4 7.58172 4 12C4 16.4183 7.58172 20 12 20Z" fill="black"/>
</svg>
