<svg width="24" height="24" viewBox="0 0 24 24" fill="none" xmlns="http://www.w3.org/2000/svg">
<path fill-rule="evenodd" clip-rule="evenodd" d="M8.22602 19.6119C7.85236 21.3557 9.18165 23 10.965 23C11.6089 23 12.2073 22.6683 12.5486 22.1223L17 15H20C21.1046 15 22 14.1046 22 13V5C22 3.89543 21.1046 3 20 3H5.8541C4.71779 3 3.679 3.64201 3.17082 4.65836L1.42229 8.15542C1.14458 8.71084 1 9.32329 1 9.94427V13C1 14.6569 2.34315 16 4 16H9L8.22602 19.6119ZM17 5V13H20V5H17ZM10.8935 20.9969L15 14.4264V5H5.8541C5.47533 5 5.12907 5.214 4.95968 5.55279L3.21115 9.04984C3.07229 9.32756 3 9.63378 3 9.94427V13C3 13.5523 3.44772 14 4 14H9C9.60399 14 10.1756 14.2729 10.5553 14.7426C10.935 15.2123 11.0822 15.8285 10.9556 16.4191L10.1816 20.031C10.0798 20.5061 10.42 20.9554 10.8935 20.9969Z" fill="black"/>
</svg>
