<svg width="24" height="24" viewBox="0 0 24 24" fill="none" xmlns="http://www.w3.org/2000/svg">
<path fill-rule="evenodd" clip-rule="evenodd" d="M15.774 4.38807L15 8H20C21.6569 8 23 9.34315 23 11V14.0557C23 14.6767 22.8554 15.2892 22.5777 15.8446L20.8292 19.3416C20.321 20.358 19.2822 21 18.1459 21H4C2.89543 21 2 20.1046 2 19V11C2 9.89543 2.89543 9 4 9H7L11.4514 1.87769C11.7927 1.33169 12.3911 1 13.035 1C14.8184 1 16.1476 2.64432 15.774 4.38807ZM7 11H4L4 19H7V11ZM19.0403 18.4472C18.8709 18.786 18.5247 19 18.1459 19H9V9.57359L13.1065 3.00312C13.58 3.04459 13.9202 3.4939 13.8184 3.96901L13.0444 7.58094C12.9178 8.17152 13.065 8.78766 13.4447 9.25736C13.8244 9.72705 14.396 10 15 10H20C20.5523 10 21 10.4477 21 11V14.0557C21 14.3662 20.9277 14.6724 20.7889 14.9502L19.0403 18.4472Z" fill="black"/>
</svg>
