<svg width="24" height="24" viewBox="0 0 24 24" fill="none" xmlns="http://www.w3.org/2000/svg">
<path d="M11 15.5C11 16.0523 11.4477 16.5 12 16.5C12.5522 16.5 13 16.0523 13 15.5V14H14.5C15.0522 14 15.5 13.5523 15.5 13C15.5 12.4477 15.0522 12 14.5 12H13V10.5C13 9.94769 12.5522 9.49998 12 9.49998C11.4477 9.49998 11 9.94769 11 10.5V12H9.49996C8.94767 12 8.49996 12.4477 8.49996 13C8.49996 13.5523 8.94767 14 9.49996 14H11V15.5Z" fill="black"/>
<path fill-rule="evenodd" clip-rule="evenodd" d="M10.5857 4.58576L12 5.99998H20C21.1045 5.99998 22 6.89541 22 7.99998V18C22 19.1045 21.1045 20 20 20H3.99995C2.89539 20 1.99995 19.1045 1.99995 18V5.99998C1.99995 4.89541 2.89538 3.99998 3.99995 3.99998H9.17153C9.70196 3.99998 10.2107 4.21069 10.5857 4.58576ZM12 7.99998C11.4695 7.99998 10.9608 7.78926 10.5857 7.41419L9.17153 5.99998L3.99995 5.99998L3.99995 18H20V7.99998H12Z" fill="black"/>
</svg>
